# xmcd
#
# Track frame offsets: 
#        300
#        22507
#        43997
#        65428
#        85402
#        108363
#        133104
#        152015
#        175908
#        203389
#        223988
#        249189
#        271993
#
# Disc length: 3847 seconds
#
# Revision: 0
# Processed by: cddbd v1.5.2PL0 Copyright (c) Steve Scherf et al.
# Submitted via: ExactAudioCopy v1.0b1
#
DISCID=af0f030d
DTITLE=Dave Specter - Speculatin'
DYEAR=2000
DGENRE=General Blues
TTITLE0=At Whit's End
TTITLE1=Blues A-La-King
TTITLE2=Texas Top
TTITLE3=The Mighty Burner
TTITLE4=Birk's Works
TTITLE5=Look-Ka Py Py
TTITLE6=The Haleiwa Shuffle
TTITLE7=Blues For Magic Sam
TTITLE8=Hot Cha
TTITLE9=Jade's Dance
TTITLE10=Minor Side Down
TTITLE11=Speculatin'
TTITLE12=Dark Hour Blues
EXTD=
EXTT0=
EXTT1=
EXTT2=
EXTT3=
EXTT4=
EXTT5=
EXTT6=
EXTT7=
EXTT8=
EXTT9=
EXTT10=
EXTT11=
EXTT12=
PLAYORDER=
